<svg width="12" height="12" viewBox="0 0 12 12" fill="#FFFFFF" xmlns="http://www.w3.org/2000/svg">
<path d="M11.267 6.26675C11.3337 6.20008 11.3337 6.06675 11.3337 6.00008C11.3337 5.93341 11.3337 5.80008 11.267 5.73341C11.2003 5.66675 11.2003 5.60008 11.1337 5.53341L6.46699 0.866748C6.20033 0.600081 5.80033 0.600081 5.53366 0.866748C5.26699 1.13341 5.26699 1.53341 5.53366 1.80008L9.06699 5.33341H1.33366C0.933659 5.33341 0.666992 5.60008 0.666992 6.00008C0.666992 6.40008 0.933659 6.66675 1.33366 6.66675H9.06699L5.53366 10.2001C5.26699 10.4667 5.26699 10.8667 5.53366 11.1334C5.66699 11.2667 5.86699 11.3334 6.00033 11.3334C6.13366 11.3334 6.33366 11.2667 6.46699 11.1334L11.1337 6.46675C11.2003 6.40008 11.267 6.33341 11.267 6.26675Z" fill="#FFFFFF"/>
</svg>
